<mxfile host="Electron" modified="2024-08-01T12:31:35.030Z" agent="Mozilla/5.0 (Windows NT 10.0; Win64; x64) AppleWebKit/537.36 (KHTML, like Gecko) draw.io/24.5.3 Chrome/124.0.6367.207 Electron/30.0.6 Safari/537.36" etag="nDYd9p_cNmLxX-j1lStP" version="24.5.3" type="device">
  <diagram name="Page-1" id="UrK6Bo9RlJTae5dgCStj">
    <mxGraphModel dx="780" dy="504" grid="0" gridSize="10" guides="1" tooltips="1" connect="0" arrows="1" fold="1" page="1" pageScale="1" pageWidth="827" pageHeight="1169" background="#ffffff" math="0" shadow="0">
      <root>
        <mxCell id="0" />
        <mxCell id="1" parent="0" />
        <mxCell id="YP0ySZfvn1Sn1BVyc12X-4" value="" style="rounded=0;whiteSpace=wrap;html=1;dashed=1;" vertex="1" parent="1">
          <mxGeometry x="500" y="170" width="220" height="210" as="geometry" />
        </mxCell>
        <mxCell id="YP0ySZfvn1Sn1BVyc12X-2" value="" style="rounded=0;whiteSpace=wrap;html=1;dashed=1;" vertex="1" parent="1">
          <mxGeometry x="70" y="170" width="220" height="210" as="geometry" />
        </mxCell>
        <mxCell id="YP0ySZfvn1Sn1BVyc12X-1" value="" style="rounded=0;whiteSpace=wrap;html=1;dashed=1;fillColor=#fff2cc;strokeColor=#d6b656;" vertex="1" parent="1">
          <mxGeometry x="95" y="210" width="170" height="140" as="geometry" />
        </mxCell>
        <mxCell id="YP0ySZfvn1Sn1BVyc12X-3" value="" style="rounded=0;whiteSpace=wrap;html=1;dashed=1;fillColor=#fff2cc;strokeColor=#d6b656;" vertex="1" parent="1">
          <mxGeometry x="525" y="210" width="170" height="140" as="geometry" />
        </mxCell>
        <mxCell id="YP0ySZfvn1Sn1BVyc12X-5" value="" style="image;aspect=fixed;html=1;points=[];align=center;fontSize=12;image=img/lib/azure2/compute/Virtual_Machine.svg;" vertex="1" parent="1">
          <mxGeometry x="136.87" y="250.5" width="86.25" height="80" as="geometry" />
        </mxCell>
        <mxCell id="YP0ySZfvn1Sn1BVyc12X-6" value="" style="image;aspect=fixed;html=1;points=[];align=center;fontSize=12;image=img/lib/azure2/compute/Virtual_Machine.svg;" vertex="1" parent="1">
          <mxGeometry x="569.57" y="250.5" width="80.86" height="75" as="geometry" />
        </mxCell>
        <mxCell id="YP0ySZfvn1Sn1BVyc12X-7" value="" style="shape=image;verticalLabelPosition=bottom;labelBackgroundColor=default;verticalAlign=top;aspect=fixed;imageAspect=0;image=data:image/png,iVBORw0KGgoAAAANSUhEUgAAAKMAAACUCAMAAADIzWmnAAAAhFBMVEUAcsb///8Ab8U0gcsAbMQAY8EAacPD3PAYdcdbmNSTveP4+/0AZ8I1is/k7/j7/v9HiM6CtOBUjtAAX8Dy9vvr9ftmotjY5/Woyeg4hs7N4PKeweSvzem+1+4nfcpZlNJzqduBrNxGktOPr9y2yeeStuCduuG+0OoAWb5pndZ3otc6dsfIwpoJAAAHlUlEQVR4nO2caXurKhCAFZFgtGqM+xZNT9uTnv///67gEhc07vlwnS/to4hvZmAYBIbj1xI5wFwl4MNfrWKeW6siNRHBk5GDwJXXqnotxlCoExJNcpKzUt2rMJqn+7WFSFR5vaxDuQZjZMewQ0gpvbO1Qv2LGa0wRmxCYnDIXRztzYzOt6F0rVynVOLP0xsZLdeIwSBhrktsXBaZfC6j5Z9vUHwJWCpTkc7ObM4ZjJrsB6mBYW8rZAmE8e0zVGe1zWmMmub8BJKQvfG1jbs2hwAbaRCp8kTSUYyarKmOH/35kjwMFTgZr6ZOpACs298/J8fUxqKyGWXLslRVdRzfP0XuOXncdAFDUZmhPoZCAVIU7BmP5ByEkZ+J4zjZ27J3sodPNuM9JoIx+eEIEsuuAdcizYwPafVZ1RiTFwq3CYwxXB9qDHQ8gbEdIOyFKRyMB+PBeDAejAfjwXgwHowH48F4MB6MB+PBeDAejAfjwXgwHowH48H4P2McXjYZuLuIUaHSrhySi42VTQDF61+ytnO9iqjDQu5eIeDQ36vIXNFbwgjPFyK3VrV3ctGuayiWXMek4oSp3vpFQLADv7gbnR8MWy1hFPOrTty4DAJy0a929SDPVeuVNIoD5RE27vJqGG/AyLtKo8YzuXYqGVHaZOBV71kLEsLOeqX10dbkGoz8ow7ZZITn6ulizVd91qIkjE0AGzE2zVdnBGmuJ9kPPtPP7+Bk1fWYlkvVVuQG367ry9sx8m6tGzcY43x/mS9hqCCkQOwFjl7UolwKRD8lWwgQBLGQRLLltXc7LGekL3ogJiN85BC4ei1AuGwF97xS1UaV+wII6a63uh5NqikHV7fqjIj+Lyd1zRQFgZf3Jeej0eM4xp6RxYyyTdt9wGRUqB8yb4y9KsClVVo9+71WZdS8L/rHLq3dYGTosVQjbSOmMWKrzfL2eAPU2tbf0oj19pjQImF3Y5dyoXfcMRHAckZJ8ai1QwYj0HMHGHYsCukNUxizY2kFRoiotU0bdhg5Lsyf9O1mMAHv1G/6zf6yISPA1Npq7smbPjwu9mPKjo1rMQ38pVcvFSOoyRaMHPRM8l+IunpEejXcqSmuvCjIm+O9NDXWa4K5pqzCyCH6SplauxVTQCMqH9f8pOw8eXBUVQgksiOqlPZguA4jBygIDRdajNnY8fWMfNxioCsY/5VlHubzLfJWjHfKEcIuY6blOKgo1dwhtvW4B2NhbV5CDMZMlXpQNks1b4M5Y0kD7FoYuRkjd6XbazNrMxhJvM2lRQ+nsRlM6f9J2Yk8Ouu4uNsyAp3a0wWQxUgocZDHYqFY+Z5IrDRNRJS0TRkLdyLbCpuRuMAvalE5C31A7q1U3KgR2hszclfaty2caGzG7IE81vnNLCzmwW/aGAu3ZwQfVDeB3cuIbPrEF/GoebThNxS5PWMW5RBbmnSqV46FjQegVDFyOO9CYV2ROzBy8IdcoI2uiHs+QJ1BzCeJxNZZ88170LkWeO/CGFeDcxnjRjoqAx6gGPntj/yJfIzUQqHYcwzgdQfGbMLcZsz8y8WIgYIA1s/5YHISC+Ri8NFcW48xjvWHS3/Dxowc99NhJNOy6M+f8FQgVbMbaFQHp1T/dPLL3fZbM8JittdgbIiZPGdnOOrc3oGxdC+NuWtNNKdeHMC0cyTJ9JMW4uqMnJLPDvLvZkA4+7VPOrKfxKhZOr749ZDHCSSuWWIhIzCItJ01plf1UlNQMJIgctQovDwE0PkEChAQpEsYOVFWQBI41uGlRd9xya79bp306rMkgEgUr1eR/Y2WFlCyAqIoor4Cxzf7g/FgPBgPxuWMYz5obiDQmMAovYlRmsCYdIb7XeQZOY9gdMXXFW4gYjiB0Rn12XV1Udjn3tmMavyOjg1ilUnTc5b09x2dBqbsE7A9Z3KDt+gxYMP0MDqd9e8dEOOeNAw9jPIbPGQ5ixvLyIfX3RmvzAnuAKO2e8+GXt+Z8d5z7O7uxmY78CHGzuLJxgKM3rwL/fkAon3HbNTXGgdzFtz3tDa694MMMJ52PG5frJZOZuTPO7bIniHmJaOp72VtqA8lTRrMoaHuZG2AB3OpDOf5CHZRJOh3jSMY+XQPB1Qsk85l1B7bQyrpMMPLnC7q5tNYJL1K7PMy74zzsS0k/GBPEKYw8s6orTmzEYXX+cVG5O9pLkeujDg0vkxg5E+baRIKY9LyjcqD5GykSYBHJZIbl0/qNGJj4HSB8bjMZyNzXqkbDN3wPjKb2Ni8XM59bWeOpJdOZyIjL6/8La3vo8QSRl774tazNwTdhdoVGHktxGtBQjwc6cxmJNuz1rE3MsY2xemMvJWuEPUCmE5LDziNkUS9S+0N4dDcZQ1G/rQwWIPG5JSVkxl567EgKSCAj+lpIKczZv3731xVZv15RtbcGYwkXy83R5UAJJP68yJGXg7R9JUHJM5MPTyPkQyNE1UJOHtuQtK5jJkqvSkLTWI8pyUuZMw6+Hn0AA7xZVZLXMyYzXRuo9wQgMvSSy9i5K0f3D2O2SZEcWi+rmozxozyggd1CWC8OK/0UsbM4L8DIRvE3c1wb2DktYh1jCvXorRGyvj/AGx9fvkfdburAAAAAElFTkSuQmCC;" vertex="1" parent="1">
          <mxGeometry x="478.15" y="190" width="41.85" height="38" as="geometry" />
        </mxCell>
        <mxCell id="YP0ySZfvn1Sn1BVyc12X-8" value="" style="shape=image;verticalLabelPosition=bottom;labelBackgroundColor=default;verticalAlign=top;aspect=fixed;imageAspect=0;image=data:image/png,iVBORw0KGgoAAAANSUhEUgAAAKMAAACUCAMAAADIzWmnAAAAhFBMVEUAcsb///8Ab8U0gcsAbMQAY8EAacPD3PAYdcdbmNSTveP4+/0AZ8I1is/k7/j7/v9HiM6CtOBUjtAAX8Dy9vvr9ftmotjY5/Woyeg4hs7N4PKeweSvzem+1+4nfcpZlNJzqduBrNxGktOPr9y2yeeStuCduuG+0OoAWb5pndZ3otc6dsfIwpoJAAAHlUlEQVR4nO2caXurKhCAFZFgtGqM+xZNT9uTnv///67gEhc07vlwnS/to4hvZmAYBIbj1xI5wFwl4MNfrWKeW6siNRHBk5GDwJXXqnotxlCoExJNcpKzUt2rMJqn+7WFSFR5vaxDuQZjZMewQ0gpvbO1Qv2LGa0wRmxCYnDIXRztzYzOt6F0rVynVOLP0xsZLdeIwSBhrktsXBaZfC6j5Z9vUHwJWCpTkc7ObM4ZjJrsB6mBYW8rZAmE8e0zVGe1zWmMmub8BJKQvfG1jbs2hwAbaRCp8kTSUYyarKmOH/35kjwMFTgZr6ZOpACs298/J8fUxqKyGWXLslRVdRzfP0XuOXncdAFDUZmhPoZCAVIU7BmP5ByEkZ+J4zjZ27J3sodPNuM9JoIx+eEIEsuuAdcizYwPafVZ1RiTFwq3CYwxXB9qDHQ8gbEdIOyFKRyMB+PBeDAejAfjwXgwHowH48F4MB6MB+PBeDAejAfjwXgwHowH48H4P2McXjYZuLuIUaHSrhySi42VTQDF61+ytnO9iqjDQu5eIeDQ36vIXNFbwgjPFyK3VrV3ctGuayiWXMek4oSp3vpFQLADv7gbnR8MWy1hFPOrTty4DAJy0a929SDPVeuVNIoD5RE27vJqGG/AyLtKo8YzuXYqGVHaZOBV71kLEsLOeqX10dbkGoz8ow7ZZITn6ulizVd91qIkjE0AGzE2zVdnBGmuJ9kPPtPP7+Bk1fWYlkvVVuQG367ry9sx8m6tGzcY43x/mS9hqCCkQOwFjl7UolwKRD8lWwgQBLGQRLLltXc7LGekL3ogJiN85BC4ei1AuGwF97xS1UaV+wII6a63uh5NqikHV7fqjIj+Lyd1zRQFgZf3Jeej0eM4xp6RxYyyTdt9wGRUqB8yb4y9KsClVVo9+71WZdS8L/rHLq3dYGTosVQjbSOmMWKrzfL2eAPU2tbf0oj19pjQImF3Y5dyoXfcMRHAckZJ8ai1QwYj0HMHGHYsCukNUxizY2kFRoiotU0bdhg5Lsyf9O1mMAHv1G/6zf6yISPA1Npq7smbPjwu9mPKjo1rMQ38pVcvFSOoyRaMHPRM8l+IunpEejXcqSmuvCjIm+O9NDXWa4K5pqzCyCH6SplauxVTQCMqH9f8pOw8eXBUVQgksiOqlPZguA4jBygIDRdajNnY8fWMfNxioCsY/5VlHubzLfJWjHfKEcIuY6blOKgo1dwhtvW4B2NhbV5CDMZMlXpQNks1b4M5Y0kD7FoYuRkjd6XbazNrMxhJvM2lRQ+nsRlM6f9J2Yk8Ouu4uNsyAp3a0wWQxUgocZDHYqFY+Z5IrDRNRJS0TRkLdyLbCpuRuMAvalE5C31A7q1U3KgR2hszclfaty2caGzG7IE81vnNLCzmwW/aGAu3ZwQfVDeB3cuIbPrEF/GoebThNxS5PWMW5RBbmnSqV46FjQegVDFyOO9CYV2ROzBy8IdcoI2uiHs+QJ1BzCeJxNZZ88170LkWeO/CGFeDcxnjRjoqAx6gGPntj/yJfIzUQqHYcwzgdQfGbMLcZsz8y8WIgYIA1s/5YHISC+Ri8NFcW48xjvWHS3/Dxowc99NhJNOy6M+f8FQgVbMbaFQHp1T/dPLL3fZbM8JittdgbIiZPGdnOOrc3oGxdC+NuWtNNKdeHMC0cyTJ9JMW4uqMnJLPDvLvZkA4+7VPOrKfxKhZOr749ZDHCSSuWWIhIzCItJ01plf1UlNQMJIgctQovDwE0PkEChAQpEsYOVFWQBI41uGlRd9xya79bp306rMkgEgUr1eR/Y2WFlCyAqIoor4Cxzf7g/FgPBgPxuWMYz5obiDQmMAovYlRmsCYdIb7XeQZOY9gdMXXFW4gYjiB0Rn12XV1Udjn3tmMavyOjg1ilUnTc5b09x2dBqbsE7A9Z3KDt+gxYMP0MDqd9e8dEOOeNAw9jPIbPGQ5ixvLyIfX3RmvzAnuAKO2e8+GXt+Z8d5z7O7uxmY78CHGzuLJxgKM3rwL/fkAon3HbNTXGgdzFtz3tDa694MMMJ52PG5frJZOZuTPO7bIniHmJaOp72VtqA8lTRrMoaHuZG2AB3OpDOf5CHZRJOh3jSMY+XQPB1Qsk85l1B7bQyrpMMPLnC7q5tNYJL1K7PMy74zzsS0k/GBPEKYw8s6orTmzEYXX+cVG5O9pLkeujDg0vkxg5E+baRIKY9LyjcqD5GykSYBHJZIbl0/qNGJj4HSB8bjMZyNzXqkbDN3wPjKb2Ni8XM59bWeOpJdOZyIjL6/8La3vo8QSRl774tazNwTdhdoVGHktxGtBQjwc6cxmJNuz1rE3MsY2xemMvJWuEPUCmE5LDziNkUS9S+0N4dDcZQ1G/rQwWIPG5JSVkxl567EgKSCAj+lpIKczZv3731xVZv15RtbcGYwkXy83R5UAJJP68yJGXg7R9JUHJM5MPTyPkQyNE1UJOHtuQtK5jJkqvSkLTWI8pyUuZMw6+Hn0AA7xZVZLXMyYzXRuo9wQgMvSSy9i5K0f3D2O2SZEcWi+rmozxozyggd1CWC8OK/0UsbM4L8DIRvE3c1wb2DktYh1jCvXorRGyvj/AGx9fvkfdburAAAAAElFTkSuQmCC;" vertex="1" parent="1">
          <mxGeometry x="270" y="190" width="41.85" height="38" as="geometry" />
        </mxCell>
        <mxCell id="YP0ySZfvn1Sn1BVyc12X-10" value="" style="shape=image;verticalLabelPosition=bottom;labelBackgroundColor=default;verticalAlign=top;aspect=fixed;imageAspect=0;image=data:image/jpeg,/9j/4AAQSkZJRgABAQAAAQABAAD/2wCEAAkGBwgHBgkIBwgKCgkLDRYPDQwMDRsUFRAWIB0iIiAdHx8kKDQsJCYxJx8fLT0tMTU3Ojo6Iys/RD84QzQ5OjcBCgoKDQwNGg8PGjclHyU3Nzc3Nzc3Nzc3Nzc3Nzc3Nzc3Nzc3Nzc3Nzc3Nzc3Nzc3Nzc3Nzc3Nzc3Nzc3Nzc3N//AABEIAIUA4QMBIgACEQEDEQH/xAAbAAEAAgMBAQAAAAAAAAAAAAAABgcDBAUCAf/EADcQAAEEAQEGAgYJBQEAAAAAAAEAAgMEBREGEiExUWETQSMycZGx0RQiM0JDUmLB8BUkgaHhB//EABoBAQACAwEAAAAAAAAAAAAAAAAEBQECAwb/xAApEQACAgIBAwMEAwEBAAAAAAAAAQIDBBExEiJBBSFhEyNRsTKBkXEU/9oADAMBAAIRAxEAPwC8UREAREQBERAERa967WoV3WLkzYom/eP7DzWUm/ZGG0ltmwi0MZmcfld4UbIkLOLm7paR/ggFb6NNPTEZKS2nsIiLBkIiIAiIgCIiAIi1Mlk6eMiEt6dsTXHRuoJJ9gHErKTb0jDaits20WnjcnSykRloztlaDoeBBHtB4hbiNNPTCaktoIiLBkIiIAiIgCIiAIiIAiIgCItLLZOtiajrNp2jRwa0c3noFlJt6RiUlFbZ6ymRrYuo6zbeGsHIebj0AVWZ3M2czbMsxLYm6+FEDwYPn3XnN5ezmbZnsHRo4RxjkwfPuseKxtnK3G1qrdXHi5x5MHUq0ooVS6pclJk5Mr5dEOP2dDYuOw/aGsa4dozUykcgzTz/ANK1FzsJiK2HpiCuNXHjJIebyuioORarJ7RZ4lDpr0+QiIuBJCIiAIiIAiIgCrj/ANDZYGYjfIHeAYgIj5a+Y9qsdauSoV8lUfWts3o3e9p6juu1Fn059TOGTS7q+lMqTF5Gzi7bbNR+64cHNPJ46FWng8zWzNTxoDuyN4SRE8WH5d1WufwljC2vDl+vC4+ilHJw/YrVxt+xjLbLNR+69vMeTh0KsLaY3R6o8lTRfPGn0y4LmRcvAZuvmqviRfUmZp4sRPFp+S6iqpRcXpl3GSmuqPAREWDYIiIAiIgCIiAIi5+ay9bD1DPYdq48I4wfrPPb5rKTk9I1lJRW3wesxla2IpusWndmMHN56BVXmMrZy9s2LTuzGDkwdAvmWydnLW3WbTtTyYweqwdAvmJxlnK3G1qrdXHi5x5MHUq1ppjTHqlyUmRkyyJdMeBisbZytxtaqzVx4uceTB1KtTCYivh6YgrjVx4ySEcXn+eSYXEVsPUEFZurjxkkI4vPf5LoKFkZDselwWOLiqldUv5BERRiYEREAREQBERAEREAREQGtkKNfI1X1rcYfG73g9R3VW7QYOxhbW5Jq+B32c2nB3Y9CrbWvep179V9a3GJIn8wfLuO670Xup/BFycaNy+Sn6F2xj7TLNR+5Kz3EdD2VpbPZ2vmqu8zRlhg9LF5t7jqFXm0WBnwtnR2slZ5Phy6f6Pdc+lcnoWWWashjlZyI8+x6hT7ao3x6olXTfPGn0y48oulFx9nM/Bmq2o0jss+0i15dx1C7Cq5RcXpl5CcZx6o8BERamwREQBEXLz+br4Wr4kv15ng+FEObj+w7rMYuT0jWUlBdUuD1nczWw1TxpzvPdwjiHN5+XdVZlMjZylt1m2/eeeAA5NHQLzkb9jJW32rb96R3uaOg7LJicZZytxtaqzUni5x5MHUq1ppjTHb5KPIyJ5EumPH4PmJxtnK3G1qrdXHi5x5MHUq1MLia2HpiCsNSeMkh5vPUphcTWw9MV641J4ySHm89SugoWRkOx6XBZYuKqVt/wAgiLFYsQVmb9iVkTer3aKK2ktsmGVFy27RYhz9wXo9e4IHv00XSjkZKwPie17Tyc06haQtrs/hJP8A4zCaZ6REXQyERadzKUaXC1ajjP5ddT7hxWspxgtyekNm4i0amYx1x27Wtxud+U8D7it5ITjNbi9ob2ERFsAi+EhoJcQAOZK50+exVd+5Jdj3v06u09y0nZCtbm0v+mG0jpIsFW7Vtt3qs8co/Q7XRZ1spKS2mZMF2pBerSVrUYfE8aEH+cCqu2kwE+Fs8dX1Xn0Uv7HurYWG3VhuV317MYkieNHNKkUXup/BGycaN0fkpunanpWWWKshjlYdWuCs/ZraCHNQbp0jtsHpI+vcdlBNpNn58LY1G9JUefRyny7Hv8Vyq1iWrOyeu8xyxnVrh5KwsrhfHaKqq6zFn0y48outFwtmNooczD4cmkdxg1fH5OHUfzgu6qqcHB6ZdwnGyPVHgIiLU3OVtBm6+FqGSTR8zvsoQeLj8u6q3IXrGRtvs2pC+R5/w0dB0C2tpbE1nO3HWCd5kpY0H7rQeA/nVcxW+PSq478soMvIlbLXhG5icZZy1xtaq3Uni555MHUq1MLia2HqCCs3UnjJIRxeepXP2Gggi2egkhaN+UudI7zJDiP9aKQKFk3OcnHwixw8eMIKflhERRScaGbyTMVQfYcA5/qxs19ZyrW7cnvTumtSOe8nz5DsOilP/oDnaUm/cO+T7eH/AFQ9eU9YyJyvdXhHCx++gujhMvPirLXsc50JPpIteDh81zkVXXZKuSnB6aOaei3YZWTwsmiO8yRoc09QV7XI2Te5+Bq73kCB7NSuuvd0z+pXGf5RKT2tkW2uz0lR30Gk7dlI1kkB4tHQd1CXEucXOJJPMnzW7nHOfmLhf63jOH++C0V43OyZ33ScuFwR5PbCmex+dkneMfceXv01ie48Tp5FQxbuFe5mWpuZ6wlbp71jByJ0XxcfPJiL0y00RYbrnNpzuYdHCNxB76L2zelslEE2ozkt+y+tA8tqRnTRp+0I8z2XAQckXg77p32Oc37kVvfuZK88taZs1eR0cjeTmlWRs7lf6tQErgGzMO7I0dev+VWalewDnfSrbeO6WNP+dVYekXzhkKvwzat6eiaoiL1pIMVqtDbrvr2Y2yRPGjmuHNVhtNs9NhZ99m9JTefqSaer+l3f4q1FhuwQ2qksFlgdE9hDgei703Op/BGyceN0fkpmvPLWmZNXkdHKw6tc08QrO2Y2iizMPhy7sdxg+tHr6w/MP5wVXPAD3Bp1aCdD1Cy0p5q1uGesSJmPBZp5norK6lWx+Snx8iVMvgupFg8WT8n+l9VPo9Bsje2Wzf8AUI3XqLP7tg+swfij5quTwOh5q8FCtstmDKX5HGxjf4uniaOLv1Dv1HmpuLka7JFbm4m/uQ/s4GzG0MuFsbj9X03n0kY5g/mHdWhXnitQMnryNkieNWubyIVJru7L7RS4afw5d59N5+uz8p/MP5xXbJx+vujycMTL+n2T4/RaaLHXnitQMnryNkieNWubyIWRVZdJ7OVtHi/6pjnRs0EzDvRk9en+VW0sb4ZHRysLHtOjmuGhBVvLn5PDUcnxsxekA0EjeDveqn1H03/0vrg9S/ZznDfuir1no05r1pleu0ue8+4dSpi3YqmJNXWpyz8vAH3ru4/HVMdGWVIWs15u5k+0qto9FulL7vsjRVvyZKNZlOnDWj9WJgaD17rOiL06SitI7kK2zw0jJ3ZGu0ujf9qB909fYoorfIBBBGoPkuFf2Tx1p5fEH13E6nw/V9yoc70mVk3ZT55RylX77RXqkmxmKfYutvSNIgh13SfvO/4u1T2Px8Dg6d0s5Hk46N9wUgjYyNgZG1rGNGga0aALXB9InCxWXePBiNb3tnpCARoRqERehOxWGdxcmKvPiLT4LjrE/q35hc5WzcqV7sJhtRNkYfI+XcdFH5ti6Tn6xWJo26+qdHLzOV6NZ1t0+6/H4OEq34INz5KwdkMU/H0XS2Gls85BLT91o5BZ8Zs5j8e8StY6WUcny8dPYOS7CmenemOiX1LOfBtCGvdhERXR1CgG2G1H0nxMdjn+h4tmlH3/ANI7d/NNrtqvpO/QxknoOUkzD6/Ydu/mocBqdAFY42NrvmVOZmb+3X/bCnux+y30csyGSZpNzihP3e579vJfdj9lxAGZDJR+mPGKFw9Tue/wUyWuTk77IG2Hh6+5Z/SCIigFoEREBDNrtlPH37+Lj9LzlhH3+7e/bz9vOBK8FEdrtlRc372NZpZ5yRDgJO4/V8VPxsnXbMrMvD331/4RvZfaKXDT+HLvSUnn67PNh/MPkrOgmisQsmgeHxvGrXNPAhUoQWuLXAgg6EHyK7uy+0cmGm8KYl9J51c0cSw/mHyXTIx+vujycMTL+n2T4/RaSLxBNHPEyWF7XxvGrXNPAhe1WF0EREAREQBERAEREAREQBERAERCQBqeAQBV/tftSbJfj8a8iEHSWZv4nYdvj7Ofza/an6Vv4/Gv/t+LZZR+J2Hb4/GIDoArHGxtd8ypzMzf26/9A6AKfbIbLCuGX8mwGbg6KI/c7nv8F72Q2W+ibl/JM/uOcUR/D7nv8FL1rk5O+yBvh4eu+z/AiIoBZhERAEREAREQEV2t2XbkGuu0GhtsDV7ANBL/ANVdOa5ji17S1zToWkaEFXeoxtXswzJtdbpNay6PWHISjv37qbj5PT2z4K3Lw+rvr5ItsrtHJh5hDOXPpPP1hzMZ6j9wrNhljniZLC9r43jea5p1BCpSRj4pHRyNLHtOjmuGhBXf2V2kkxEwgslz6TzxHnGeo/cLtkY/X3R5OGJl/T7J8fos9F4ilZNE2WJ4ex41a5p1BC9qsLkIiIAiIgCIiAIiIAiISANTwCAE6DUqvtr9qfpe/Qxsn9vykmaftOw7fH4/Nr9qTbL6GNeRXB0klH4nYdvj7OcRAJIABJPAAeascbG13zKnMzN/brABJAaCSeAA81YWyGy4phl/IsBsnjHE4fZdz3+C+7I7LikGXsiwG0eMcZ/C7n9XwUtWmTk77IG+Hh9PfZz+AiIoJZhERAEREAREQBERAEREBFducLWnoS5IejswtGpA4PGvI/NVyiK0w5N1+5SeoRUbfbyiV7B5ezDkGY0nfrS7xDT9w89R8lYqIo2YkrPYm+nybq9/DCIiiE4IiIAiIgCIiAKEf+gZezE9mMhO5FJHvSuHN4J03fZ8URScVJ2rZDzpONL0QZTrYDD1n1/6rKPEm3y2MEcGaeftX1FNy5NV+xXYEVK73JqiIqkvQiIgCIiAIiID/9k=;" vertex="1" parent="1">
          <mxGeometry x="510" y="368.82" width="35.83" height="21.18" as="geometry" />
        </mxCell>
        <mxCell id="YP0ySZfvn1Sn1BVyc12X-11" value="" style="shape=image;verticalLabelPosition=bottom;labelBackgroundColor=default;verticalAlign=top;aspect=fixed;imageAspect=0;image=data:image/jpeg,/9j/4AAQSkZJRgABAQAAAQABAAD/2wCEAAkGBwgHBgkIBwgKCgkLDRYPDQwMDRsUFRAWIB0iIiAdHx8kKDQsJCYxJx8fLT0tMTU3Ojo6Iys/RD84QzQ5OjcBCgoKDQwNGg8PGjclHyU3Nzc3Nzc3Nzc3Nzc3Nzc3Nzc3Nzc3Nzc3Nzc3Nzc3Nzc3Nzc3Nzc3Nzc3Nzc3Nzc3N//AABEIAIUA4QMBIgACEQEDEQH/xAAbAAEAAgMBAQAAAAAAAAAAAAAABgcDBAUCAf/EADcQAAEEAQEGAgYJBQEAAAAAAAEAAgMEBREGEiExUWETQSMycZGx0RQiM0JDUmLB8BUkgaHhB//EABoBAQACAwEAAAAAAAAAAAAAAAAEBQECAwb/xAApEQACAgIBAwMEAwEBAAAAAAAAAQIDBBExEiJBBSFhEyNRsTKBkXEU/9oADAMBAAIRAxEAPwC8UREAREQBERAERa967WoV3WLkzYom/eP7DzWUm/ZGG0ltmwi0MZmcfld4UbIkLOLm7paR/ggFb6NNPTEZKS2nsIiLBkIiIAiIgCIiAIi1Mlk6eMiEt6dsTXHRuoJJ9gHErKTb0jDaits20WnjcnSykRloztlaDoeBBHtB4hbiNNPTCaktoIiLBkIiIAiIgCIiAIiIAiIgCItLLZOtiajrNp2jRwa0c3noFlJt6RiUlFbZ6ymRrYuo6zbeGsHIebj0AVWZ3M2czbMsxLYm6+FEDwYPn3XnN5ezmbZnsHRo4RxjkwfPuseKxtnK3G1qrdXHi5x5MHUq0ooVS6pclJk5Mr5dEOP2dDYuOw/aGsa4dozUykcgzTz/ANK1FzsJiK2HpiCuNXHjJIebyuioORarJ7RZ4lDpr0+QiIuBJCIiAIiIAiIgCrj/ANDZYGYjfIHeAYgIj5a+Y9qsdauSoV8lUfWts3o3e9p6juu1Fn059TOGTS7q+lMqTF5Gzi7bbNR+64cHNPJ46FWng8zWzNTxoDuyN4SRE8WH5d1WufwljC2vDl+vC4+ilHJw/YrVxt+xjLbLNR+69vMeTh0KsLaY3R6o8lTRfPGn0y4LmRcvAZuvmqviRfUmZp4sRPFp+S6iqpRcXpl3GSmuqPAREWDYIiIAiIgCIiAIi5+ay9bD1DPYdq48I4wfrPPb5rKTk9I1lJRW3wesxla2IpusWndmMHN56BVXmMrZy9s2LTuzGDkwdAvmWydnLW3WbTtTyYweqwdAvmJxlnK3G1qrdXHi5x5MHUq1ppjTHqlyUmRkyyJdMeBisbZytxtaqzVx4uceTB1KtTCYivh6YgrjVx4ySEcXn+eSYXEVsPUEFZurjxkkI4vPf5LoKFkZDselwWOLiqldUv5BERRiYEREAREQBERAEREAREQGtkKNfI1X1rcYfG73g9R3VW7QYOxhbW5Jq+B32c2nB3Y9CrbWvep179V9a3GJIn8wfLuO670Xup/BFycaNy+Sn6F2xj7TLNR+5Kz3EdD2VpbPZ2vmqu8zRlhg9LF5t7jqFXm0WBnwtnR2slZ5Phy6f6Pdc+lcnoWWWashjlZyI8+x6hT7ao3x6olXTfPGn0y48oulFx9nM/Bmq2o0jss+0i15dx1C7Cq5RcXpl5CcZx6o8BERamwREQBEXLz+br4Wr4kv15ng+FEObj+w7rMYuT0jWUlBdUuD1nczWw1TxpzvPdwjiHN5+XdVZlMjZylt1m2/eeeAA5NHQLzkb9jJW32rb96R3uaOg7LJicZZytxtaqzUni5x5MHUq1ppjTHb5KPIyJ5EumPH4PmJxtnK3G1qrdXHi5x5MHUq1MLia2HpiCsNSeMkh5vPUphcTWw9MV641J4ySHm89SugoWRkOx6XBZYuKqVt/wAgiLFYsQVmb9iVkTer3aKK2ktsmGVFy27RYhz9wXo9e4IHv00XSjkZKwPie17Tyc06haQtrs/hJP8A4zCaZ6REXQyERadzKUaXC1ajjP5ddT7hxWspxgtyekNm4i0amYx1x27Wtxud+U8D7it5ITjNbi9ob2ERFsAi+EhoJcQAOZK50+exVd+5Jdj3v06u09y0nZCtbm0v+mG0jpIsFW7Vtt3qs8co/Q7XRZ1spKS2mZMF2pBerSVrUYfE8aEH+cCqu2kwE+Fs8dX1Xn0Uv7HurYWG3VhuV317MYkieNHNKkUXup/BGycaN0fkpunanpWWWKshjlYdWuCs/ZraCHNQbp0jtsHpI+vcdlBNpNn58LY1G9JUefRyny7Hv8Vyq1iWrOyeu8xyxnVrh5KwsrhfHaKqq6zFn0y48outFwtmNooczD4cmkdxg1fH5OHUfzgu6qqcHB6ZdwnGyPVHgIiLU3OVtBm6+FqGSTR8zvsoQeLj8u6q3IXrGRtvs2pC+R5/w0dB0C2tpbE1nO3HWCd5kpY0H7rQeA/nVcxW+PSq478soMvIlbLXhG5icZZy1xtaq3Uni555MHUq1MLia2HqCCs3UnjJIRxeepXP2Gggi2egkhaN+UudI7zJDiP9aKQKFk3OcnHwixw8eMIKflhERRScaGbyTMVQfYcA5/qxs19ZyrW7cnvTumtSOe8nz5DsOilP/oDnaUm/cO+T7eH/AFQ9eU9YyJyvdXhHCx++gujhMvPirLXsc50JPpIteDh81zkVXXZKuSnB6aOaei3YZWTwsmiO8yRoc09QV7XI2Te5+Bq73kCB7NSuuvd0z+pXGf5RKT2tkW2uz0lR30Gk7dlI1kkB4tHQd1CXEucXOJJPMnzW7nHOfmLhf63jOH++C0V43OyZ33ScuFwR5PbCmex+dkneMfceXv01ie48Tp5FQxbuFe5mWpuZ6wlbp71jByJ0XxcfPJiL0y00RYbrnNpzuYdHCNxB76L2zelslEE2ozkt+y+tA8tqRnTRp+0I8z2XAQckXg77p32Oc37kVvfuZK88taZs1eR0cjeTmlWRs7lf6tQErgGzMO7I0dev+VWalewDnfSrbeO6WNP+dVYekXzhkKvwzat6eiaoiL1pIMVqtDbrvr2Y2yRPGjmuHNVhtNs9NhZ99m9JTefqSaer+l3f4q1FhuwQ2qksFlgdE9hDgei703Op/BGyceN0fkpmvPLWmZNXkdHKw6tc08QrO2Y2iizMPhy7sdxg+tHr6w/MP5wVXPAD3Bp1aCdD1Cy0p5q1uGesSJmPBZp5norK6lWx+Snx8iVMvgupFg8WT8n+l9VPo9Bsje2Wzf8AUI3XqLP7tg+swfij5quTwOh5q8FCtstmDKX5HGxjf4uniaOLv1Dv1HmpuLka7JFbm4m/uQ/s4GzG0MuFsbj9X03n0kY5g/mHdWhXnitQMnryNkieNWubyIVJru7L7RS4afw5d59N5+uz8p/MP5xXbJx+vujycMTL+n2T4/RaaLHXnitQMnryNkieNWubyIWRVZdJ7OVtHi/6pjnRs0EzDvRk9en+VW0sb4ZHRysLHtOjmuGhBVvLn5PDUcnxsxekA0EjeDveqn1H03/0vrg9S/ZznDfuir1no05r1pleu0ue8+4dSpi3YqmJNXWpyz8vAH3ru4/HVMdGWVIWs15u5k+0qto9FulL7vsjRVvyZKNZlOnDWj9WJgaD17rOiL06SitI7kK2zw0jJ3ZGu0ujf9qB909fYoorfIBBBGoPkuFf2Tx1p5fEH13E6nw/V9yoc70mVk3ZT55RylX77RXqkmxmKfYutvSNIgh13SfvO/4u1T2Px8Dg6d0s5Hk46N9wUgjYyNgZG1rGNGga0aALXB9InCxWXePBiNb3tnpCARoRqERehOxWGdxcmKvPiLT4LjrE/q35hc5WzcqV7sJhtRNkYfI+XcdFH5ti6Tn6xWJo26+qdHLzOV6NZ1t0+6/H4OEq34INz5KwdkMU/H0XS2Gls85BLT91o5BZ8Zs5j8e8StY6WUcny8dPYOS7CmenemOiX1LOfBtCGvdhERXR1CgG2G1H0nxMdjn+h4tmlH3/ANI7d/NNrtqvpO/QxknoOUkzD6/Ydu/mocBqdAFY42NrvmVOZmb+3X/bCnux+y30csyGSZpNzihP3e579vJfdj9lxAGZDJR+mPGKFw9Tue/wUyWuTk77IG2Hh6+5Z/SCIigFoEREBDNrtlPH37+Lj9LzlhH3+7e/bz9vOBK8FEdrtlRc372NZpZ5yRDgJO4/V8VPxsnXbMrMvD331/4RvZfaKXDT+HLvSUnn67PNh/MPkrOgmisQsmgeHxvGrXNPAhUoQWuLXAgg6EHyK7uy+0cmGm8KYl9J51c0cSw/mHyXTIx+vujycMTL+n2T4/RaSLxBNHPEyWF7XxvGrXNPAhe1WF0EREAREQBERAEREAREQBERAERCQBqeAQBV/tftSbJfj8a8iEHSWZv4nYdvj7Ofza/an6Vv4/Gv/t+LZZR+J2Hb4/GIDoArHGxtd8ypzMzf26/9A6AKfbIbLCuGX8mwGbg6KI/c7nv8F72Q2W+ibl/JM/uOcUR/D7nv8FL1rk5O+yBvh4eu+z/AiIoBZhERAEREAREQEV2t2XbkGuu0GhtsDV7ANBL/ANVdOa5ji17S1zToWkaEFXeoxtXswzJtdbpNay6PWHISjv37qbj5PT2z4K3Lw+rvr5ItsrtHJh5hDOXPpPP1hzMZ6j9wrNhljniZLC9r43jea5p1BCpSRj4pHRyNLHtOjmuGhBXf2V2kkxEwgslz6TzxHnGeo/cLtkY/X3R5OGJl/T7J8fos9F4ilZNE2WJ4ex41a5p1BC9qsLkIiIAiIgCIiAIiIAiISANTwCAE6DUqvtr9qfpe/Qxsn9vykmaftOw7fH4/Nr9qTbL6GNeRXB0klH4nYdvj7OcRAJIABJPAAeascbG13zKnMzN/brABJAaCSeAA81YWyGy4phl/IsBsnjHE4fZdz3+C+7I7LikGXsiwG0eMcZ/C7n9XwUtWmTk77IG+Hh9PfZz+AiIoJZhERAEREAREQBERAEREBFducLWnoS5IejswtGpA4PGvI/NVyiK0w5N1+5SeoRUbfbyiV7B5ezDkGY0nfrS7xDT9w89R8lYqIo2YkrPYm+nybq9/DCIiiE4IiIAiIgCIiAKEf+gZezE9mMhO5FJHvSuHN4J03fZ8URScVJ2rZDzpONL0QZTrYDD1n1/6rKPEm3y2MEcGaeftX1FNy5NV+xXYEVK73JqiIqkvQiIgCIiAIiID/9k=;imageBorder=none;" vertex="1" parent="1">
          <mxGeometry x="240" y="368.82" width="35.83" height="21.18" as="geometry" />
        </mxCell>
        <mxCell id="YP0ySZfvn1Sn1BVyc12X-12" value="&lt;font color=&quot;#3333ff&quot;&gt;VNET1&lt;/font&gt;" style="text;html=1;align=center;verticalAlign=middle;whiteSpace=wrap;rounded=0;" vertex="1" parent="1">
          <mxGeometry x="90" y="130" width="60" height="30" as="geometry" />
        </mxCell>
        <mxCell id="YP0ySZfvn1Sn1BVyc12X-13" value="&lt;font color=&quot;#3333ff&quot;&gt;VNET 2&lt;/font&gt;" style="text;html=1;align=center;verticalAlign=middle;whiteSpace=wrap;rounded=0;" vertex="1" parent="1">
          <mxGeometry x="519" y="130" width="60" height="30" as="geometry" />
        </mxCell>
        <mxCell id="YP0ySZfvn1Sn1BVyc12X-14" value="&lt;font color=&quot;#0000ff&quot;&gt;Subnet&lt;/font&gt;" style="text;html=1;align=center;verticalAlign=middle;whiteSpace=wrap;rounded=0;" vertex="1" parent="1">
          <mxGeometry x="147" y="184" width="60" height="30" as="geometry" />
        </mxCell>
        <mxCell id="YP0ySZfvn1Sn1BVyc12X-15" value="&lt;font color=&quot;#0000ff&quot;&gt;Subnet&lt;/font&gt;" style="text;html=1;align=center;verticalAlign=middle;whiteSpace=wrap;rounded=0;" vertex="1" parent="1">
          <mxGeometry x="586" y="186" width="60" height="30" as="geometry" />
        </mxCell>
        <mxCell id="YP0ySZfvn1Sn1BVyc12X-16" value="" style="endArrow=classic;startArrow=classic;html=1;rounded=0;entryX=0.005;entryY=0.54;entryDx=0;entryDy=0;entryPerimeter=0;strokeColor=#00FF00;" edge="1" parent="1" source="YP0ySZfvn1Sn1BVyc12X-5" target="YP0ySZfvn1Sn1BVyc12X-6">
          <mxGeometry width="50" height="50" relative="1" as="geometry">
            <mxPoint x="360" y="278" as="sourcePoint" />
            <mxPoint x="560" y="278" as="targetPoint" />
          </mxGeometry>
        </mxCell>
        <mxCell id="YP0ySZfvn1Sn1BVyc12X-18" value="" style="endArrow=classic;html=1;rounded=0;entryX=-0.018;entryY=0.473;entryDx=0;entryDy=0;entryPerimeter=0;exitX=0.997;exitY=0.473;exitDx=0;exitDy=0;exitPerimeter=0;strokeColor=#00FF00;" edge="1" parent="1">
          <mxGeometry width="50" height="50" relative="1" as="geometry">
            <mxPoint x="292.3399999999999" y="269.33000000000004" as="sourcePoint" />
            <mxPoint x="499.03999999999996" y="269.33000000000004" as="targetPoint" />
          </mxGeometry>
        </mxCell>
        <mxCell id="YP0ySZfvn1Sn1BVyc12X-19" value="" style="endArrow=classic;html=1;rounded=0;entryX=1.015;entryY=0.416;entryDx=0;entryDy=0;entryPerimeter=0;strokeColor=#00FF00;" edge="1" parent="1" target="YP0ySZfvn1Sn1BVyc12X-2">
          <mxGeometry width="50" height="50" relative="1" as="geometry">
            <mxPoint x="495" y="257" as="sourcePoint" />
            <mxPoint x="390" y="210" as="targetPoint" />
          </mxGeometry>
        </mxCell>
      </root>
    </mxGraphModel>
  </diagram>
</mxfile>
